<svg width="227" height="30" viewBox="0 0 227 30" fill="none" xmlns="http://www.w3.org/2000/svg">
<g filter="url(#filter0_d_1_527)">
<path d="M13.657 1.17895V0.732877C13.657 0.328085 13.9842 0 14.3878 0C14.7914 0 15.1185 0.328085 15.1185 0.732877V1.17895C15.1185 1.58375 14.7914 1.91183 14.3878 1.91183C13.9842 1.91183 13.657 1.58367 13.657 1.17895ZM6.59024 3.47042C6.72559 3.70567 6.97121 3.83718 7.22388 3.83718C7.34778 3.83718 7.47339 3.80551 7.58836 3.73898C7.93798 3.5367 8.0579 3.08851 7.85622 2.73795L7.63399 2.35164C7.43222 2.001 6.98525 1.88081 6.63588 2.083C6.28626 2.28527 6.16641 2.73347 6.36802 3.08403L6.59024 3.47042ZM21.1869 3.73898C21.3019 3.80559 21.4275 3.83726 21.5515 3.83726C21.804 3.83726 22.0497 3.70575 22.1851 3.47066L22.4074 3.08435C22.6092 2.73379 22.4894 2.2856 22.1399 2.08324C21.7905 1.88097 21.3436 2.00108 21.1417 2.35156L20.9193 2.73787C20.7176 3.08834 20.8373 3.53654 21.1869 3.73898ZM26.7977 9.09737C26.9217 9.09737 27.0473 9.06569 27.1625 8.999L27.5477 8.77596C27.8971 8.57352 28.0168 8.12525 27.8149 7.77477C27.6132 7.42429 27.1663 7.30418 26.8168 7.5067L26.4316 7.72974C26.0821 7.93217 25.9624 8.38037 26.1642 8.73093C26.2995 8.96594 26.5451 9.09737 26.7977 9.09737ZM28.6972 22.0949C27.7483 23.981 25.0967 25.2483 22.0989 25.2483C20.0439 25.2483 18.1189 24.6538 16.8102 23.636C16.0605 24.1513 15.269 24.4831 14.4849 24.5844C14.4492 24.5891 14.4133 24.5908 14.3788 24.5905C14.3495 24.5902 14.3201 24.5883 14.2907 24.5844C13.5065 24.483 12.715 24.1512 11.9654 23.636C10.6567 24.6539 8.73181 25.2483 6.67663 25.2483C3.67888 25.2483 1.02725 23.981 0.0783418 22.0949C-0.0260734 21.8874 -0.0261545 21.6424 0.0783418 21.4347C0.778476 20.0427 2.37954 18.9872 4.40556 18.5297C3.35427 17.0322 2.97038 15.2627 3.4465 13.749C3.5048 13.5638 3.63406 13.4093 3.80579 13.3196C5.00648 12.6922 6.52927 12.6468 8.01162 13.1678C8.23166 12.4367 8.57795 11.8005 9.04717 11.3045C9.20769 11.1349 9.4395 11.0524 9.67066 11.0822C10.054 11.1318 10.4389 11.2365 10.82 11.3906C11.5932 9.75183 12.7328 8.52971 14.0828 7.9084C14.2762 7.81931 14.4988 7.81931 14.6923 7.9084C16.0419 8.52939 17.1811 9.75069 17.9545 11.3884C18.3356 11.2356 18.7209 11.132 19.1049 11.0822C19.3363 11.0524 19.5679 11.1349 19.7284 11.3045C20.1977 11.8005 20.5438 12.4366 20.7639 13.1676C22.2464 12.6467 23.769 12.6923 24.9696 13.3195C25.1413 13.4092 25.2706 13.5637 25.3289 13.7489C25.8052 15.2627 25.4213 17.0321 24.3699 18.5296C26.396 18.9871 27.9971 20.0426 28.6972 21.4345C28.8016 21.6424 28.8016 21.8874 28.6972 22.0949ZM19.8493 20.016C20.6428 19.8183 21.4311 19.4111 22.1255 18.8268C23.5438 17.6334 24.2866 15.8957 24.0115 14.4913C23.1531 14.157 22.0825 14.2089 21.0275 14.6334C21.1288 16.0018 20.8828 17.5496 20.275 19.073C20.1458 19.3969 20.0033 19.7118 19.8493 20.016ZM12.1014 12.1047C12.9433 12.7057 13.7285 13.5376 14.3862 14.5328C15.0473 13.527 15.8317 12.6964 16.6715 12.0988C16.1087 10.8792 15.3031 9.92535 14.3877 9.39825C13.4708 9.92625 12.6642 10.8823 12.1014 12.1047ZM6.64984 18.8267C7.34413 19.4111 8.13268 19.8185 8.92635 20.0161C8.77225 19.7117 8.62991 19.397 8.50057 19.0729C7.89284 17.5496 7.64682 16.0017 7.74807 14.6334C6.69304 14.2087 5.62242 14.1568 4.76387 14.4912C4.48879 15.8956 5.23163 17.6333 6.64984 18.8267ZM10.8109 22.6641C10.4962 22.3466 10.1957 21.9961 9.91391 21.6174C8.46582 21.5925 6.95513 20.9973 5.71035 19.9496C5.65798 19.9055 5.6065 19.8611 5.55567 19.8159C3.77583 20.037 2.28413 20.7728 1.58229 21.7647C2.43556 22.9683 4.4529 23.7826 6.67647 23.7826C8.25512 23.7826 9.765 23.3651 10.8109 22.6641ZM14.1038 17.1384C13.3755 15.3131 12.1579 13.8077 10.8781 13.048C10.8424 13.031 10.8086 13.0114 10.7768 12.9896C10.474 12.8195 10.1685 12.6917 9.86544 12.6116C9.5625 13.046 9.35968 13.6018 9.25876 14.2349C9.25616 14.2735 9.25048 14.3121 9.24163 14.3504C9.07299 15.5732 9.27419 17.0668 9.85732 18.5285C10.4459 20.0036 11.3539 21.2697 12.3562 22.1023C12.3796 22.1192 12.4022 22.1377 12.4239 22.1577C12.967 22.5965 13.536 22.9075 14.0956 23.0554C14.9938 21.7676 15.0117 19.4143 14.1038 17.1384ZM18.9181 18.5284C19.501 17.0672 19.7022 15.574 19.534 14.3515C19.5248 14.3123 19.519 14.2727 19.5164 14.2332C19.4155 13.6007 19.2126 13.0455 18.9099 12.6113C18.6114 12.69 18.31 12.8148 18.0107 12.981C17.9712 13.0095 17.9281 13.0345 17.8821 13.0551C16.8881 13.6476 15.9287 14.6909 15.2065 16.0047C15.296 16.1974 15.3808 16.3939 15.4606 16.594C16.2892 18.6709 16.4455 20.7935 15.9657 22.4446C16.0961 22.3558 16.2256 22.2594 16.3536 22.1559C16.3739 22.1373 16.395 22.12 16.4168 22.1041C17.42 21.2715 18.3291 20.0046 18.9181 18.5284ZM27.1931 21.7647C26.4912 20.7728 24.9995 20.0371 23.2195 19.8159C23.1688 19.861 23.1172 19.9056 23.0649 19.9496C21.8201 20.9971 20.3095 21.5924 18.8615 21.6173C18.5798 21.9961 18.2792 22.3466 17.9645 22.6641C19.0105 23.3649 20.5205 23.7825 22.0989 23.7825C24.3224 23.7826 26.3398 22.9683 27.1931 21.7647ZM21.4717 27.1852C21.1674 26.9193 20.7058 26.9513 20.4407 27.2564C19.9799 27.787 17.7973 28.5342 14.3878 28.5342C10.9782 28.5342 8.79555 27.787 8.33477 27.2564C8.06968 26.9513 7.60809 26.9193 7.30378 27.1852C6.99946 27.4511 6.96763 27.914 7.23273 28.2192C8.3744 29.5336 11.8006 30 14.3879 30C16.975 30 20.4012 29.5336 21.5429 28.2192C21.8078 27.9139 21.776 27.4511 21.4717 27.1852ZM4.78149 11.6782C5.16968 11.7879 5.57354 11.5611 5.68299 11.1716C6.77537 7.28309 10.3549 4.56729 14.3878 4.56729C18.4207 4.56729 22.0002 7.28309 23.0926 11.1716C23.1833 11.4948 23.4765 11.7059 23.7955 11.7059C23.8611 11.7059 23.9279 11.697 23.9941 11.6782C24.3826 11.5685 24.6087 11.1637 24.4992 10.7741C23.2302 6.25657 19.0722 3.10154 14.3878 3.10154C9.70329 3.10154 5.54528 6.25665 4.2763 10.7741C4.16685 11.1637 4.39298 11.5685 4.78149 11.6782ZM14.3878 27.5369C15.0156 27.5369 17.1222 27.4697 17.872 26.6059C18.137 26.3006 18.1051 25.8377 17.8007 25.5719C17.4979 25.3075 17.0394 25.3378 16.7739 25.6387C16.6072 25.7906 15.7422 26.0711 14.3878 26.0711C13.033 26.0711 12.1679 25.7905 12.0014 25.6386C11.7357 25.3378 11.2774 25.3075 10.9746 25.572C10.6702 25.8378 10.6384 26.3008 10.9035 26.606C11.6535 27.4698 13.7601 27.5369 14.3878 27.5369ZM1.2278 8.7758L1.61274 8.99892C1.72787 9.06561 1.85356 9.09737 1.97771 9.09737C2.23014 9.09737 2.47567 8.96602 2.6111 8.73101C2.81303 8.38053 2.69343 7.93226 2.34397 7.72982L1.95903 7.5067C1.60982 7.30434 1.1626 7.42405 0.960756 7.7746C0.758827 8.125 0.878425 8.57328 1.2278 8.7758Z" fill="white"/>
</g>
<g opacity="0.5">
<path d="M123.997 12.5277C123.365 11.2308 122.279 10.5046 121.228 9.80154C120.445 9.27692 119.706 8.78154 119.183 8.07231L119.086 7.94154C118.779 7.52769 118.428 7.05846 118.374 6.66462C118.369 6.63231 118.351 6.60615 118.342 6.57385C118.328 6.52 118.313 6.46923 118.288 6.42C118.269 6.38 118.243 6.34462 118.216 6.30769C118.183 6.26615 118.153 6.22615 118.113 6.19231C118.074 6.15846 118.033 6.13538 117.989 6.10923C117.949 6.08615 117.913 6.06462 117.868 6.04923C117.814 6.02923 117.759 6.02154 117.7 6.01538C117.671 6.01385 117.646 6 117.616 6C117.597 6 117.582 6.00923 117.565 6.01077C117.546 6.01231 117.529 6.00462 117.511 6.00769C117.477 6.01231 117.451 6.03077 117.419 6.04C117.366 6.05385 117.317 6.06769 117.271 6.09231C117.228 6.11385 117.191 6.14154 117.154 6.17231C117.114 6.20308 117.076 6.23385 117.043 6.27231C117.011 6.30923 116.988 6.34923 116.963 6.39077C116.939 6.43385 116.916 6.47538 116.899 6.52308C116.882 6.57077 116.876 6.62 116.869 6.67231C116.862 6.70308 116.846 6.73385 116.846 6.76923V20.4769C116.202 20.0862 115.408 19.8462 114.539 19.8462C112.417 19.8462 110.693 21.2262 110.693 22.9231C110.693 24.62 112.417 26 114.539 26C116.66 26 118.385 24.62 118.385 22.9231V13.9569C119.54 14.3985 121.431 15.5231 121.951 18.1492C121.854 18.2923 121.762 18.4477 121.654 18.5692C121.373 18.8877 121.405 19.3738 121.723 19.6538C121.869 19.7831 122.051 19.8462 122.231 19.8462C122.445 19.8462 122.656 19.7569 122.808 19.5846C123.013 19.3523 123.196 19.0769 123.371 18.7938C123.391 18.7692 123.406 18.7462 123.423 18.72C124.045 17.68 124.457 16.3646 124.536 15.0646C124.586 14.2292 124.4 13.3523 123.997 12.5277ZM114.539 24.4615C113.288 24.4615 112.231 23.7569 112.231 22.9231C112.231 22.0892 113.288 21.3846 114.539 21.3846C115.789 21.3846 116.846 22.0892 116.846 22.9231C116.846 23.7569 115.789 24.4615 114.539 24.4615ZM123.002 14.9677C122.98 15.3277 122.925 15.6877 122.846 16.04C121.765 13.8692 119.803 12.7385 118.385 12.32V9.49385C118.988 10.1369 119.688 10.6185 120.374 11.0769C121.296 11.6938 122.166 12.2769 122.617 13.2015C122.9 13.7785 123.036 14.4077 123.002 14.9677Z" fill="white"/>
<path d="M113 6H103.769C103.345 6 103 6.34462 103 6.76923C103 7.19385 103.345 7.53846 103.769 7.53846H113C113.425 7.53846 113.769 7.19385 113.769 6.76923C113.769 6.34462 113.425 6 113 6Z" fill="white"/>
<path d="M113 10.6154H103.769C103.345 10.6154 103 10.96 103 11.3846C103 11.8093 103.345 12.1539 103.769 12.1539H113C113.425 12.1539 113.769 11.8093 113.769 11.3846C113.769 10.96 113.425 10.6154 113 10.6154Z" fill="white"/>
<path d="M108.385 15.2308H103.769C103.345 15.2308 103 15.5755 103 16.0001C103 16.4247 103.345 16.7693 103.769 16.7693H108.385C108.809 16.7693 109.154 16.4247 109.154 16.0001C109.154 15.5755 108.809 15.2308 108.385 15.2308Z" fill="white"/>
<path d="M108.385 19.8463H103.769C103.345 19.8463 103 20.1909 103 20.6155C103 21.0401 103.345 21.3847 103.769 21.3847H108.385C108.809 21.3847 109.154 21.0401 109.154 20.6155C109.154 20.1909 108.809 19.8463 108.385 19.8463Z" fill="white"/>
</g>
<g opacity="0.5">
<path d="M218.885 14.9424C221.631 14.9424 223.856 12.7167 223.856 9.9712C223.856 7.22568 221.631 5 218.885 5C216.14 5 213.914 7.22568 213.914 9.9712C213.914 12.7167 216.14 14.9424 218.885 14.9424Z" stroke="white" stroke-width="1.5" stroke-linecap="round" stroke-linejoin="round"/>
<path fill-rule="evenodd" clip-rule="evenodd" d="M211 21.8564C210.999 21.5069 211.077 21.1617 211.229 20.8469C211.705 19.8946 213.048 19.3898 214.162 19.1613C214.965 18.9898 215.78 18.8752 216.6 18.8184C218.117 18.6851 219.644 18.6851 221.162 18.8184C221.981 18.8759 222.796 18.9904 223.6 19.1613C224.714 19.3898 226.057 19.847 226.533 20.8469C226.838 21.4887 226.838 22.2337 226.533 22.8754C226.057 23.8754 224.714 24.3325 223.6 24.5515C222.797 24.7301 221.982 24.8479 221.162 24.9039C219.926 25.0086 218.685 25.0277 217.447 24.961C217.162 24.961 216.886 24.961 216.6 24.9039C215.783 24.8486 214.971 24.7308 214.171 24.5515C213.048 24.3325 211.714 23.8754 211.229 22.8754C211.078 22.5569 211 22.2088 211 21.8564Z" stroke="white" stroke-width="1.5" stroke-linecap="round" stroke-linejoin="round"/>
</g>
<defs>
<filter id="filter0_d_1_527" x="-120" y="-116" width="268.776" height="270" filterUnits="userSpaceOnUse" color-interpolation-filters="sRGB">
<feFlood flood-opacity="0" result="BackgroundImageFix"/>
<feColorMatrix in="SourceAlpha" type="matrix" values="0 0 0 0 0 0 0 0 0 0 0 0 0 0 0 0 0 0 127 0" result="hardAlpha"/>
<feOffset dy="4"/>
<feGaussianBlur stdDeviation="60"/>
<feColorMatrix type="matrix" values="0 0 0 0 1 0 0 0 0 1 0 0 0 0 1 0 0 0 1 0"/>
<feBlend mode="normal" in2="BackgroundImageFix" result="effect1_dropShadow_1_527"/>
<feBlend mode="normal" in="SourceGraphic" in2="effect1_dropShadow_1_527" result="shape"/>
</filter>
</defs>
</svg>
