<svg width="13" height="13" viewBox="0 0 13 13" fill="none" xmlns="http://www.w3.org/2000/svg">
<path d="M6.00369 -2.16943e-08C2.69305 -9.73133e-09 -9.73226e-09 2.91596 -2.16943e-08 6.5C-3.36563e-08 10.084 2.69305 13 6.00369 13C9.31433 13 12.0074 10.084 12.0074 6.5C12.0074 2.91596 9.31433 -3.36572e-08 6.00369 -2.16943e-08ZM8.39042 6.72773L4.88827 9.16523C4.84723 9.19405 4.79983 9.20834 4.75293 9.20834C4.71189 9.20834 4.67036 9.19722 4.63323 9.17528C4.5526 9.12768 4.50277 9.03668 4.50277 8.9375L4.50277 4.0625C4.50277 3.96332 4.5526 3.87232 4.63323 3.82472C4.71238 3.77764 4.81156 3.78054 4.88827 3.83477L8.39042 6.27227C8.46176 6.32199 8.50524 6.40796 8.50524 6.5C8.50524 6.59204 8.46176 6.67799 8.39042 6.72773Z" fill="black"/>
</svg>
