<svg width="284" height="289" viewBox="0 0 284 289" fill="none" xmlns="http://www.w3.org/2000/svg">
<g filter="url(#filter0_d_1_487)">
<path d="M140.603 117.926V117.197C140.603 116.536 141.096 116 141.705 116C142.314 116 142.807 116.536 142.807 117.197V117.926C142.807 118.587 142.314 119.123 141.705 119.123C141.096 119.123 140.603 118.587 140.603 117.926ZM129.942 121.668C130.146 122.053 130.517 122.267 130.898 122.267C131.085 122.267 131.274 122.216 131.448 122.107C131.975 121.777 132.156 121.045 131.852 120.472L131.516 119.841C131.212 119.268 130.538 119.072 130.011 119.402C129.483 119.733 129.302 120.465 129.607 121.037L129.942 121.668ZM151.962 122.107C152.136 122.216 152.325 122.268 152.512 122.268C152.893 122.268 153.264 122.053 153.468 121.669L153.803 121.038C154.108 120.465 153.927 119.733 153.4 119.403C152.873 119.072 152.198 119.268 151.894 119.841L151.558 120.472C151.254 121.044 151.435 121.776 151.962 122.107ZM160.426 130.859C160.613 130.859 160.803 130.807 160.977 130.698L161.558 130.334C162.085 130.003 162.265 129.271 161.961 128.699C161.657 128.126 160.982 127.93 160.455 128.261L159.874 128.625C159.347 128.956 159.166 129.688 159.471 130.261C159.675 130.644 160.045 130.859 160.426 130.859ZM163.292 152.088C161.86 155.169 157.86 157.239 153.338 157.239C150.238 157.239 147.334 156.268 145.359 154.605C144.228 155.447 143.034 155.989 141.852 156.155C141.798 156.162 141.744 156.165 141.691 156.164C141.647 156.164 141.603 156.161 141.559 156.155C140.376 155.989 139.182 155.447 138.051 154.605C136.076 156.268 133.173 157.239 130.072 157.239C125.55 157.239 121.55 155.169 120.118 152.088C119.961 151.749 119.961 151.349 120.118 151.01C121.174 148.736 123.59 147.012 126.646 146.265C125.06 143.819 124.481 140.929 125.199 138.457C125.287 138.154 125.482 137.902 125.741 137.755C127.553 136.731 129.85 136.656 132.086 137.507C132.418 136.313 132.94 135.274 133.648 134.464C133.89 134.187 134.24 134.052 134.589 134.101C135.167 134.182 135.748 134.353 136.323 134.605C137.489 131.928 139.208 129.932 141.245 128.917C141.537 128.772 141.873 128.772 142.164 128.917C144.2 129.931 145.919 131.926 147.086 134.601C147.661 134.351 148.242 134.182 148.821 134.101C149.17 134.052 149.52 134.187 149.762 134.464C150.47 135.274 150.992 136.313 151.324 137.507C153.56 136.656 155.857 136.731 157.668 137.755C157.928 137.902 158.123 138.154 158.21 138.456C158.929 140.929 158.35 143.819 156.764 146.265C159.82 147.012 162.236 148.736 163.292 151.01C163.449 151.349 163.449 151.749 163.292 152.088ZM149.944 148.693C151.141 148.37 152.33 147.705 153.378 146.75C155.518 144.801 156.638 141.963 156.223 139.669C154.928 139.123 153.313 139.208 151.722 139.901C151.874 142.136 151.503 144.664 150.586 147.153C150.391 147.682 150.176 148.196 149.944 148.693ZM138.256 135.771C139.526 136.753 140.71 138.111 141.703 139.737C142.7 138.094 143.883 136.737 145.15 135.761C144.301 133.769 143.086 132.211 141.705 131.35C140.322 132.213 139.105 133.774 138.256 135.771ZM130.032 146.75C131.079 147.705 132.269 148.37 133.466 148.693C133.234 148.196 133.019 147.682 132.824 147.152C131.907 144.664 131.536 142.136 131.689 139.901C130.097 139.208 128.482 139.123 127.187 139.669C126.772 141.963 127.892 144.801 130.032 146.75ZM136.309 153.018C135.834 152.5 135.381 151.927 134.956 151.308C132.771 151.268 130.492 150.296 128.614 148.584C128.535 148.512 128.458 148.44 128.381 148.366C125.696 148.727 123.446 149.929 122.387 151.549C123.674 153.515 126.718 154.845 130.072 154.845C132.453 154.845 134.731 154.163 136.309 153.018ZM141.277 143.993C140.178 141.011 138.341 138.553 136.41 137.312C136.357 137.284 136.306 137.252 136.258 137.216C135.801 136.938 135.34 136.73 134.883 136.599C134.426 137.309 134.12 138.216 133.968 139.25C133.964 139.313 133.955 139.376 133.942 139.439C133.687 141.436 133.991 143.876 134.871 146.263C135.758 148.673 137.128 150.741 138.64 152.1C138.676 152.128 138.71 152.158 138.742 152.191C139.562 152.908 140.42 153.416 141.264 153.657C142.619 151.554 142.646 147.71 141.277 143.993ZM148.539 146.263C149.419 143.876 149.722 141.438 149.468 139.441C149.455 139.377 149.446 139.312 149.442 139.248C149.29 138.215 148.984 137.308 148.527 136.599C148.077 136.727 147.622 136.931 147.171 137.202C147.111 137.249 147.046 137.29 146.976 137.323C145.477 138.291 144.03 139.995 142.94 142.141C143.075 142.456 143.203 142.777 143.323 143.103C144.574 146.496 144.809 149.963 144.085 152.66C144.282 152.515 144.478 152.357 144.671 152.188C144.701 152.158 144.733 152.129 144.766 152.103C146.279 150.743 147.651 148.674 148.539 146.263ZM161.023 151.549C159.964 149.929 157.714 148.727 155.028 148.366C154.952 148.44 154.874 148.512 154.795 148.584C152.917 150.295 150.638 151.268 148.454 151.308C148.029 151.927 147.576 152.499 147.101 153.018C148.679 154.163 150.957 154.845 153.338 154.845C156.692 154.845 159.736 153.515 161.023 151.549ZM152.392 160.402C151.933 159.968 151.236 160.02 150.836 160.519C150.141 161.385 146.848 162.606 141.705 162.606C136.561 162.606 133.269 161.385 132.574 160.519C132.174 160.02 131.477 159.968 131.018 160.402C130.559 160.837 130.511 161.593 130.911 162.091C132.633 164.238 137.802 165 141.705 165C145.608 165 150.777 164.238 152.499 162.091C152.899 161.593 152.851 160.837 152.392 160.402ZM127.213 135.074C127.799 135.254 128.408 134.883 128.573 134.247C130.221 127.896 135.621 123.46 141.705 123.46C147.789 123.46 153.189 127.896 154.837 134.247C154.974 134.775 155.416 135.12 155.897 135.12C155.996 135.12 156.097 135.105 156.197 135.074C156.783 134.895 157.124 134.234 156.959 133.598C155.044 126.219 148.772 121.066 141.705 121.066C134.638 121.066 128.365 126.219 126.451 133.598C126.286 134.234 126.627 134.895 127.213 135.074ZM141.705 160.977C142.652 160.977 145.83 160.867 146.961 159.456C147.361 158.958 147.313 158.202 146.854 157.767C146.397 157.336 145.705 157.385 145.305 157.877C145.053 158.125 143.748 158.583 141.705 158.583C139.661 158.583 138.356 158.125 138.105 157.876C137.704 157.385 137.013 157.336 136.556 157.768C136.097 158.202 136.049 158.958 136.449 159.456C137.58 160.867 140.758 160.977 141.705 160.977ZM121.852 130.334L122.433 130.698C122.607 130.807 122.796 130.859 122.984 130.859C123.364 130.859 123.735 130.644 123.939 130.261C124.244 129.688 124.063 128.956 123.536 128.625L122.955 128.261C122.429 127.93 121.754 128.126 121.449 128.699C121.145 129.271 121.325 130.003 121.852 130.334Z" fill="white"/>
</g>
<defs>
<filter id="filter0_d_1_487" x="0" y="0" width="283.41" height="289" filterUnits="userSpaceOnUse" color-interpolation-filters="sRGB">
<feFlood flood-opacity="0" result="BackgroundImageFix"/>
<feColorMatrix in="SourceAlpha" type="matrix" values="0 0 0 0 0 0 0 0 0 0 0 0 0 0 0 0 0 0 127 0" result="hardAlpha"/>
<feOffset dy="4"/>
<feGaussianBlur stdDeviation="60"/>
<feColorMatrix type="matrix" values="0 0 0 0 1 0 0 0 0 1 0 0 0 0 1 0 0 0 1 0"/>
<feBlend mode="normal" in2="BackgroundImageFix" result="effect1_dropShadow_1_487"/>
<feBlend mode="normal" in="SourceGraphic" in2="effect1_dropShadow_1_487" result="shape"/>
</filter>
</defs>
</svg>
