<svg width="12" height="12" viewBox="0 0 12 12" fill="none" xmlns="http://www.w3.org/2000/svg">
<path d="M11.6686 6.92096C11.5204 6.84077 11.3373 6.86914 11.2203 6.99013C10.4357 7.80143 9.38219 8.24834 8.25364 8.24834C5.97803 8.24834 4.12682 6.39714 4.12682 4.12152C4.12682 2.73974 4.81384 1.45574 5.96466 0.687353C6.10441 0.593796 6.16514 0.418641 6.11285 0.258727C6.06056 0.0988125 5.90815 -0.00670282 5.74003 0.000331532C2.57471 0.136986 0 2.74221 0 5.99735C0 9.31489 2.68471 12 6.00265 12C8.82657 12 11.242 10.0339 11.8557 7.33411C11.893 7.16998 11.8165 7.00115 11.6686 6.92096Z" fill="white"/>
</svg>
