<svg width="18" height="22" viewBox="0 0 18 22" fill="none" xmlns="http://www.w3.org/2000/svg">
<g opacity="0.5">
<path d="M8.83608 10.9411C11.6455 10.9411 13.9229 8.66362 13.9229 5.85425C13.9229 3.04488 11.6455 0.767442 8.83608 0.767442C6.02672 0.767442 3.74927 3.04488 3.74927 5.85425C3.74927 8.66362 6.02672 10.9411 8.83608 10.9411Z" stroke="white" stroke-width="1.5" stroke-linecap="round" stroke-linejoin="round"/>
<path fill-rule="evenodd" clip-rule="evenodd" d="M0.767459 18.0159C0.766109 17.6583 0.846085 17.3051 1.00135 16.983C1.4886 16.0085 2.86263 15.492 4.00279 15.2581C4.82507 15.0826 5.6587 14.9654 6.49748 14.9073C8.05043 14.7709 9.61235 14.7709 11.1653 14.9073C12.004 14.9661 12.8376 15.0833 13.66 15.2581C14.8001 15.492 16.1742 15.9597 16.6614 16.983C16.9737 17.6396 16.9737 18.402 16.6614 19.0586C16.1742 20.0818 14.8001 20.5496 13.66 20.7737C12.8387 20.9565 12.0047 21.077 11.1653 21.1343C9.90132 21.2414 8.63145 21.261 7.36478 21.1928C7.07243 21.1928 6.78983 21.1928 6.49748 21.1343C5.66118 21.0777 4.83043 20.9572 4.01253 20.7737C2.86263 20.5496 1.49834 20.0818 1.00135 19.0586C0.846878 18.7328 0.766982 18.3765 0.767459 18.0159Z" stroke="white" stroke-width="1.5" stroke-linecap="round" stroke-linejoin="round"/>
</g>
</svg>
