<svg width="12" height="12" viewBox="0 0 12 12" fill="none" xmlns="http://www.w3.org/2000/svg">
<path d="M1.38464 2.76929H7.27258L0.405762 9.63611C0.00988774 10.0323 -0.108765 10.6278 0.105469 11.1453C0.319702 11.6627 0.824707 12 1.38464 12H10.6154C11.38 12 12 11.38 12 10.6154C12 9.85071 11.38 9.23071 10.6154 9.23071H4.72742L11.5946 2.36353C11.9905 1.96765 12.1088 1.37219 11.8945 0.854736C11.6803 0.33728 11.1753 0 10.6154 0H1.38464C0.619995 0 0 0.619995 0 1.38464C0 2.14929 0.619995 2.76929 1.38464 2.76929Z" fill="white"/>
</svg>
