<svg width="305" height="75" viewBox="0 0 305 75" fill="none" xmlns="http://www.w3.org/2000/svg">
<path d="M151.5 0C172.177 0 189 16.8227 189 37.5C189 58.1773 172.177 75 151.5 75C130.823 75 114 58.1773 114 37.5C114 16.8227 130.823 0 151.5 0ZM157.269 49.0385C157.269 49.8035 157.573 50.5372 158.114 51.0782C158.655 51.6192 159.389 51.9231 160.154 51.9231C160.919 51.9231 161.653 51.6192 162.194 51.0782C162.735 50.5372 163.038 49.8035 163.038 49.0385V25.9615C163.038 25.1965 162.735 24.4628 162.194 23.9218C161.653 23.3808 160.919 23.0769 160.154 23.0769C159.389 23.0769 158.655 23.3808 158.114 23.9218C157.573 24.4628 157.269 25.1965 157.269 25.9615V49.0385ZM139.962 49.0385C139.962 49.8035 140.265 50.5372 140.806 51.0782C141.347 51.6192 142.081 51.9231 142.846 51.9231C143.611 51.9231 144.345 51.6192 144.886 51.0782C145.427 50.5372 145.731 49.8035 145.731 49.0385V25.9615C145.731 25.1965 145.427 24.4628 144.886 23.9218C144.345 23.3808 143.611 23.0769 142.846 23.0769C142.081 23.0769 141.347 23.3808 140.806 23.9218C140.265 24.4628 139.962 25.1965 139.962 25.9615V49.0385Z" fill="white"/>
<path opacity="0.75" d="M15.71 40.2941C15.5217 40.1058 15.2663 40 15 40C14.7337 40 14.4783 40.1058 14.29 40.2941C14.1017 40.4824 13.9959 40.7378 13.9959 41.0041C13.9959 41.2704 14.1017 41.5258 14.29 41.7141L14.58 42.0041H13C11.9391 42.0041 10.9217 41.5827 10.1716 40.8325C9.42143 40.0824 9 39.065 9 38.0041C9 36.9432 9.42143 35.9258 10.1716 35.1757C10.9217 34.4255 11.9391 34.0041 13 34.0041H14.59L14.29 34.2941C14.1963 34.3871 14.1219 34.4977 14.0711 34.6195C14.0203 34.7414 13.9942 34.8721 13.9942 35.0041C13.9942 35.1361 14.0203 35.2668 14.0711 35.3887C14.1219 35.5105 14.1963 35.6211 14.29 35.7141C14.3834 35.8068 14.4943 35.8801 14.6161 35.9299C14.7379 35.9796 14.8684 36.0049 15 36.0041C15.1316 36.0049 15.2621 35.9796 15.3839 35.9299C15.5057 35.8801 15.6166 35.8068 15.71 35.7141L17.71 33.7141C17.8027 33.6207 17.876 33.5098 17.9258 33.388C17.9755 33.2662 18.0008 33.1357 18 33.0041C18.0008 32.8725 17.9755 32.742 17.9258 32.6202C17.876 32.4983 17.8027 32.3875 17.71 32.2941L15.71 30.2941C15.6168 30.2009 15.5061 30.1269 15.3842 30.0764C15.2624 30.026 15.1319 30 15 30C14.7337 30 14.4783 30.1058 14.29 30.2941C14.1017 30.4824 13.9959 30.7378 13.9959 31.0041C13.9959 31.2704 14.1017 31.5258 14.29 31.7141L14.58 32.0041H13C12.0093 32.0048 11.0342 32.2509 10.1617 32.7202C9.28921 33.1896 8.54655 33.8678 8 34.6941C7.45345 33.8678 6.71079 33.1896 5.83832 32.7202C4.96585 32.2509 3.99072 32.0048 3 32.0041H1C0.734784 32.0041 0.48043 32.1094 0.292893 32.297C0.105357 32.4845 0 32.7389 0 33.0041C0 33.2693 0.105357 33.5237 0.292893 33.7112C0.48043 33.8987 0.734784 34.0041 1 34.0041H3C4.06087 34.0041 5.07828 34.4255 5.82843 35.1757C6.57857 35.9258 7 36.9432 7 38.0041C7 39.065 6.57857 40.0824 5.82843 40.8325C5.07828 41.5827 4.06087 42.0041 3 42.0041H1C0.734784 42.0041 0.48043 42.1094 0.292893 42.297C0.105357 42.4845 0 42.7389 0 43.0041C0 43.2693 0.105357 43.5237 0.292893 43.7112C0.48043 43.8987 0.734784 44.0041 1 44.0041H3C3.99072 44.0034 4.96585 43.7573 5.83832 43.2879C6.71079 42.8185 7.45345 42.1404 8 41.3141C8.54655 42.1404 9.28921 42.8185 10.1617 43.2879C11.0342 43.7573 12.0093 44.0034 13 44.0041H14.59L14.29 44.2941C14.1963 44.3871 14.1219 44.4977 14.0711 44.6195C14.0203 44.7414 13.9942 44.8721 13.9942 45.0041C13.9942 45.1361 14.0203 45.2668 14.0711 45.3887C14.1219 45.5105 14.1963 45.6211 14.29 45.7141C14.3834 45.8068 14.4943 45.8801 14.6161 45.9299C14.7379 45.9796 14.8684 46.0049 15 46.0041C15.1316 46.0049 15.2621 45.9796 15.3839 45.9299C15.5057 45.8801 15.6166 45.8068 15.71 45.7141L17.71 43.7141C17.8027 43.6207 17.876 43.5098 17.9258 43.388C17.9755 43.2662 18.0008 43.1357 18 43.0041C18.0008 42.8725 17.9755 42.742 17.9258 42.6202C17.876 42.4983 17.8027 42.3875 17.71 42.2941L15.71 40.2941Z" fill="white"/>
<g opacity="0.75">
<path d="M300.545 29L303.273 31.7273L300.545 34.4545" stroke="white" stroke-width="2" stroke-linecap="round" stroke-linejoin="round"/>
<path d="M291 35.8182V34.4545C291 33.7312 291.287 33.0375 291.799 32.5261C292.31 32.0146 293.004 31.7273 293.727 31.7273H303.273" stroke="white" stroke-width="2" stroke-linecap="round" stroke-linejoin="round"/>
<path d="M293.727 44L291 41.2727L293.727 38.5454" stroke="white" stroke-width="2" stroke-linecap="round" stroke-linejoin="round"/>
<path d="M303.273 37.1818V38.5455C303.273 39.2688 302.985 39.9625 302.474 40.4739C301.962 40.9854 301.269 41.2727 300.545 41.2727H291" stroke="white" stroke-width="2" stroke-linecap="round" stroke-linejoin="round"/>
</g>
<g opacity="0.75" clip-path="url(#clip0_1_430)">
<path d="M225.957 44.7715C226.203 44.7715 226.416 44.6812 226.595 44.4997C227.23 43.8593 232.312 38.7341 232.947 38.0932C233.126 37.9122 233.216 37.698 233.216 37.4498C233.216 37.2021 233.126 36.9874 232.947 36.8064C232.312 36.166 227.23 31.0408 226.595 30.3999C226.416 30.2189 226.203 30.1281 225.957 30.1281C225.712 30.1281 225.499 30.2189 225.319 30.3999C225.14 30.581 225.05 30.7956 225.05 31.0433C225.05 32.3246 225.05 42.575 225.05 43.8563C225.05 44.1045 225.14 44.3187 225.319 44.4997C225.499 44.6812 225.712 44.7715 225.957 44.7715Z" fill="white"/>
</g>
<g opacity="0.75" clip-path="url(#clip1_1_430)">
<path d="M75.4081 44.7715C75.1625 44.7715 74.9497 44.6812 74.7702 44.4997C74.1348 43.8593 69.0534 38.7341 68.4185 38.0932C68.239 37.9122 68.149 37.698 68.149 37.4498C68.149 37.2021 68.239 36.9874 68.4185 36.8064C69.0534 36.166 74.1348 31.0408 74.7702 30.3999C74.9497 30.2189 75.1625 30.1281 75.4081 30.1281C75.6537 30.1281 75.8666 30.2189 76.046 30.3999C76.2255 30.581 76.3155 30.7956 76.3155 31.0433C76.3155 32.3246 76.3155 42.575 76.3155 43.8563C76.3155 44.1045 76.2255 44.3187 76.046 44.4997C75.8666 44.6812 75.6537 44.7715 75.4081 44.7715Z" fill="white"/>
</g>
<g opacity="0.75" clip-path="url(#clip2_1_430)">
<path d="M233.957 44.7715C234.203 44.7715 234.416 44.6812 234.595 44.4997C235.23 43.8593 240.312 38.7341 240.947 38.0932C241.126 37.9122 241.216 37.698 241.216 37.4498C241.216 37.2021 241.126 36.9874 240.947 36.8064C240.312 36.166 235.23 31.0408 234.595 30.3999C234.416 30.2189 234.203 30.1281 233.957 30.1281C233.712 30.1281 233.499 30.2189 233.319 30.3999C233.14 30.581 233.05 30.7956 233.05 31.0433C233.05 32.3246 233.05 42.575 233.05 43.8563C233.05 44.1045 233.14 44.3187 233.319 44.4997C233.499 44.6812 233.712 44.7715 233.957 44.7715Z" fill="white"/>
</g>
<g opacity="0.75" clip-path="url(#clip3_1_430)">
<path d="M67.4081 44.7715C67.1625 44.7715 66.9497 44.6812 66.7702 44.4997C66.1348 43.8593 61.0534 38.7341 60.4185 38.0932C60.239 37.9122 60.149 37.698 60.149 37.4498C60.149 37.2021 60.239 36.9874 60.4185 36.8064C61.0534 36.166 66.1348 31.0408 66.7702 30.3999C66.9497 30.2189 67.1625 30.1281 67.4081 30.1281C67.6537 30.1281 67.8666 30.2189 68.046 30.3999C68.2255 30.581 68.3155 30.7956 68.3155 31.0433C68.3155 32.3246 68.3155 42.575 68.3155 43.8563C68.3155 44.1045 68.2255 44.3187 68.046 44.4997C67.8666 44.6812 67.6537 44.7715 67.4081 44.7715Z" fill="white"/>
</g>
<defs>
<clipPath id="clip0_1_430">
<rect width="8.36539" height="15" fill="white" transform="translate(225 30)"/>
</clipPath>
<clipPath id="clip1_1_430">
<rect width="8.36539" height="15" fill="white" transform="matrix(-1 0 0 1 76.3652 30)"/>
</clipPath>
<clipPath id="clip2_1_430">
<rect width="8.36539" height="15" fill="white" transform="translate(233 30)"/>
</clipPath>
<clipPath id="clip3_1_430">
<rect width="8.36539" height="15" fill="white" transform="matrix(-1 0 0 1 68.3652 30)"/>
</clipPath>
</defs>
</svg>
