<svg width="260" height="57" viewBox="0 0 260 57" fill="none" xmlns="http://www.w3.org/2000/svg">
<path d="M1.0026 44.9977C12.3192 42.9574 21.6813 30.8438 35.1822 28.7421C42.3781 27.622 48.1267 29.6936 54.5357 32.9264C60.9447 36.1592 59.679 37.5773 74.1188 40.0174C86.0349 42.0311 89.1162 49.1715 100.799 49.9685C112.482 50.7656 118.033 23.7845 130.36 25.9666C142.688 28.1486 145.185 22.3183 156.725 33.2785C168.264 44.2388 179.028 35.3831 193.601 33.0534C208.174 30.7236 211.928 37.6823 218.843 36.7444C225.758 35.8065 231.888 52.7877 237.798 55.2299C243.708 57.6721 245.436 48.6729 258.022 48.6038" stroke="#498A78" stroke-width="2" stroke-linecap="round" stroke-linejoin="round"/>
<path d="M1.30964 26.7855C16.1669 24.2389 15.0983 38.8879 34.6314 40.917C54.1644 42.946 59.6878 27.9613 68.6172 23.6396C77.5466 19.3179 81.6099 -0.174449 96.4468 1.05872C111.284 2.29189 118.635 15.4242 130.996 16.9997C143.357 18.5751 145.772 29.4605 157.356 37.4492C168.941 45.4379 179.574 46.3655 194.179 44.6419C208.784 42.9184 212.832 26.281 219.763 25.5856C226.694 24.8902 232.836 32.7797 238.764 34.5548C244.692 36.3299 246.38 44.3552 258.998 44.2859" stroke="#A9D571" stroke-width="2" stroke-linecap="round" stroke-linejoin="round"/>
</svg>
